<svg width="117" height="39" viewBox="0 0 117 39" fill="none" xmlns="http://www.w3.org/2000/svg">
<path fill-rule="evenodd" clip-rule="evenodd" d="M71.9654 16.0086C74.6601 20.2684 77.4984 21.0597 80.4323 18.4668L85.726 9.91351C85.8107 9.73579 85.8303 9.53136 85.7811 9.33935C85.7319 9.14734 85.6173 8.98123 85.4594 8.87282C85.3014 8.76442 85.1112 8.72132 84.925 8.75179C84.7389 8.78227 84.5699 8.88416 84.4504 9.03797L81.2614 14.4259C81.2345 14.4814 81.1974 14.5308 81.1522 14.5711C81.1071 14.6114 81.0548 14.6418 80.9984 14.6606C80.9421 14.6794 80.8827 14.6862 80.8239 14.6806C80.765 14.675 80.7078 14.6571 80.6555 14.6279C80.5522 14.5673 80.4749 14.4672 80.4393 14.3482C80.4037 14.2292 80.4126 14.1004 80.4642 13.9881L85.3434 6.07463C85.8377 5.28328 84.6896 4.20569 84.0678 5.19909C81.5803 9.12216 79.5872 12.3717 77.0838 16.379C76.7808 16.8673 75.9836 16.379 76.3344 15.8739L82.2978 6.12514C82.3825 5.94742 82.4021 5.74299 82.3529 5.55098C82.3037 5.35897 82.1891 5.19286 82.0312 5.08445C81.8732 4.97604 81.683 4.93295 81.4968 4.96342C81.3107 4.99389 81.1417 5.09579 81.0222 5.2496C79.0929 8.38132 78.4391 9.4589 76.4938 12.5738C76.4105 12.6592 76.299 12.7069 76.1829 12.7069C76.0668 12.7069 75.9553 12.6592 75.872 12.5738C75.7887 12.5069 75.7303 12.4113 75.707 12.3036C75.6837 12.1959 75.6969 12.0829 75.7444 11.9845L78.4391 7.62365C78.5238 7.44593 78.5433 7.2415 78.4941 7.04949C78.4449 6.85748 78.3304 6.69137 78.1725 6.58296C78.0145 6.47455 77.8243 6.43146 77.6381 6.46193C77.4519 6.4924 77.283 6.5943 77.1635 6.74811L71.7422 15.655L71.9654 16.0086Z" fill="white"/>
<path d="M80.4321 18.4499L77.0837 24.0062C76.4127 25.2528 75.6334 26.4309 74.7557 27.5251C72.4596 29.7813 69.5097 28.8553 67.8674 26.2118L60.5805 14.5268C60.02 13.501 59.853 12.2874 60.1139 11.1356C60.3748 9.98383 61.0438 8.98138 61.9832 8.33444C62.9226 7.6875 64.0611 7.44525 65.1644 7.65752C66.2678 7.86978 67.2522 8.52043 67.9152 9.47564L71.6304 15.5539V15.6717L71.8537 16.0253C74.6281 20.2683 77.4876 21.0765 80.4321 18.4499Z" fill="white"/>
<path d="M10.1797 29.3067C14.6009 29.3067 18.0254 26.7 18.741 22.7643H15.342C14.7287 24.8344 12.7864 26.1633 10.2564 26.1633C6.83188 26.1633 4.63406 23.6077 4.63406 19.6465C4.63406 15.6597 6.80633 13.1552 10.2564 13.1552C12.7353 13.1552 14.6009 14.433 15.2398 16.6053H18.6899C18.051 12.593 14.7543 10.0119 10.3331 10.0119C4.86407 10.0119 1.20955 13.8708 1.20955 19.672C1.20955 25.5244 4.73629 29.3067 10.1797 29.3067ZM24.7217 29.3322C26.6895 29.3322 28.4018 28.4378 28.9385 27.1344L29.1685 29H31.903V21.3332C31.903 17.832 29.8074 15.992 26.4084 15.992C22.9839 15.992 20.735 17.7809 20.735 20.5154H23.3928C23.3928 19.1865 24.415 18.4198 26.2551 18.4198C27.8396 18.4198 28.8618 19.1098 28.8618 20.8221V21.1032L25.0795 21.3843C22.0894 21.6143 20.4027 23.071 20.4027 25.3966C20.4027 27.7733 22.0383 29.3322 24.7217 29.3322ZM25.744 26.9811C24.3384 26.9811 23.5717 26.4188 23.5717 25.2688C23.5717 24.2466 24.3128 23.6077 26.2551 23.4288L28.8874 23.2243V23.8888C28.8874 25.831 27.6607 26.9811 25.744 26.9811ZM42.8883 16.3242C42.3772 16.1964 41.9427 16.1453 41.5082 16.1453C39.8216 16.1453 38.6204 16.9887 38.0837 18.2409L37.9048 16.4009H34.9659V29H38.0837V22.8665C38.0837 20.4132 39.4893 19.212 41.7383 19.212H42.8883V16.3242ZM49.7623 29.3322C51.679 29.3322 53.3145 28.4889 54.0812 27.0322L54.2857 29H57.148V9.9863H54.0557V17.9853C53.2634 16.7331 51.7045 15.992 49.9411 15.992C46.1333 15.992 43.8332 18.8031 43.8332 22.7388C43.8332 26.6488 46.1077 29.3322 49.7623 29.3322ZM50.4523 26.47C48.28 26.47 46.9511 24.8855 46.9511 22.6365C46.9511 20.3876 48.28 18.7776 50.4523 18.7776C52.6245 18.7776 54.0301 20.3621 54.0301 22.6365C54.0301 24.911 52.6245 26.47 50.4523 26.47Z" fill="white"/>
<path d="M88.5088 29.3322C91.8055 29.3322 94.1055 27.6711 94.6422 24.911H91.7544C91.3966 26.1122 90.2721 26.7766 88.5599 26.7766C86.4898 26.7766 85.3143 25.6522 85.0843 23.4288L94.5911 23.4032V22.4577C94.5911 18.522 92.1888 15.992 88.4065 15.992C84.7009 15.992 82.1197 18.7265 82.1197 22.6877C82.1197 26.5977 84.752 29.3322 88.5088 29.3322ZM88.4321 18.5476C90.2977 18.5476 91.4988 19.6976 91.4988 21.4354H85.1609C85.4676 19.5443 86.5921 18.5476 88.4321 18.5476ZM96.1153 25.1666C96.1153 27.6455 98.1087 29.3322 101.252 29.3322C104.37 29.3322 106.542 27.7478 106.542 25.1921C106.542 23.2499 105.469 22.2788 103.348 21.7932L101.073 21.2565C99.9998 21.001 99.4376 20.5409 99.4376 19.8254C99.4376 18.8798 100.153 18.3176 101.38 18.3176C102.581 18.3176 103.297 19.0076 103.322 20.0809H106.287C106.261 17.6276 104.344 15.992 101.508 15.992C98.5942 15.992 96.4986 17.4742 96.4986 19.9532C96.4986 21.9721 97.5975 23.0454 99.872 23.5566L102.147 24.0932C103.271 24.3488 103.603 24.8088 103.603 25.4477C103.603 26.3677 102.811 26.9555 101.354 26.9555C99.9231 26.9555 99.1053 26.2655 99.0798 25.1666H96.1153ZM113.209 29V18.982H115.663V16.3753H113.209V12.4397H110.092V16.3753H107.664V18.982H110.092V29H113.209Z" fill="white"/>
</svg>
